<svg xmlns="http://www.w3.org/2000/svg" xmlns:xlink="http://www.w3.org/1999/xlink" width="500" zoomAndPan="magnify" viewBox="0 0 375 374.999991" height="500" preserveAspectRatio="xMidYMid meet" version="1.2"><g id="c9ea6449bf"><path style=" stroke:none;fill-rule:nonzero;fill:#000000;fill-opacity:1;" d="M 370.675781 130.691406 C 331.242188 126.777344 291.808594 124.128906 252.382812 122.753906 C 251.003906 83.324219 248.359375 43.894531 244.445312 4.460938 C 206.527344 0.15625 168.609375 0.15625 130.691406 4.460938 C 126.777344 43.894531 124.128906 83.324219 122.753906 122.753906 C 83.324219 124.132812 43.894531 126.777344 4.460938 130.691406 C 0.15625 168.609375 0.15625 206.527344 4.460938 244.445312 C 43.894531 248.363281 83.324219 251.011719 122.753906 252.382812 C 124.132812 291.8125 126.777344 331.242188 130.691406 370.675781 C 168.609375 374.984375 206.527344 374.984375 244.445312 370.675781 C 248.363281 331.242188 251.011719 291.808594 252.382812 252.382812 C 291.8125 251.003906 331.242188 248.359375 370.675781 244.445312 C 374.984375 206.527344 374.984375 168.609375 370.675781 130.691406 Z M 370.675781 130.691406 "/></g></svg>